<?xml version="1.0" encoding="UTF-8"?><svg id="logo" xmlns="http://www.w3.org/2000/svg" width="94.58" height="41" viewBox="0 0 94.58 41"><defs><style>.cls-1{fill:#f8aa00;}.cls-2{fill:#005ca9;}.cls-3{fill:#00707f;}.cls-4{fill:#00843b;}.cls-5{fill:#e62d31;}.cls-6{fill:#fff;}.cls-7{fill:#f07f3c;}.cls-8{fill:#ffd000;}.cls-9{fill:#7db928;}.cls-10{fill:#8da6d6;}.cls-11{fill:#b9cd76;}.cls-12{fill:#8c8b82;}.cls-13{fill:#a8589e;}.cls-14{fill:#c6c0b4;}.cls-15{fill:#1fbadb;}.cls-16{fill:#5b57a2;}.cls-17{fill:#5b257d;}.cls-18{fill:#289b38;}.cls-19{fill:#5fa4b0;}</style></defs><path class="cls-1" d="m7.88,18.25L0,22.8v-9.1l7.88,4.55Z"/><path class="cls-8" d="m0,22.8l7.88-4.55v9.1L0,22.8Z"/><path class="cls-7" d="m7.88,27.35L0,31.9v-9.1s7.88,4.55,7.88,4.55Z"/><path class="cls-5" d="m0,31.9l7.88-4.55v9.1L0,31.9Z"/><path class="cls-14" d="m7.88,9.15L0,13.7V4.6l7.88,4.55Z"/><path class="cls-12" d="m0,13.7l7.88-4.55v9.1L0,13.7Z"/><path class="cls-11" d="m15.76,13.7l-7.88-4.55v9.1l7.88-4.55Z"/><path class="cls-9" d="m7.88,18.25l7.88,4.55v-9.1l-7.88,4.55Z"/><path class="cls-18" d="m15.76,22.8l-7.88-4.55v9.1l7.88-4.55Z"/><path class="cls-4" d="m7.88,27.35l7.88,4.55v-9.1s-7.88,4.55-7.88,4.55Z"/><path class="cls-2" d="m7.88,36.45l7.88,4.55v-9.1l-7.88,4.55Z"/><path class="cls-15" d="m15.76,31.9l-7.88-4.55v9.1s7.88-4.55,7.88-4.55Z"/><path class="cls-13" d="m15.76,31.9l7.88,4.55v-9.1s-7.88,4.55-7.88,4.55Z"/><path class="cls-17" d="m23.64,36.45l-7.88-4.55v9.1l7.88-4.55Z"/><path class="cls-3" d="m31.52,13.7l-7.88,4.55v-9.1l7.88,4.55Z"/><path class="cls-19" d="m23.64,9.15l7.88-4.55v9.1l-7.88-4.55Z"/><path class="cls-16" d="m31.52,31.9l-7.88,4.55v-9.1s7.88,4.55,7.88,4.55Z"/><path class="cls-10" d="m23.64,27.35l7.88-4.55v9.1s-7.88-4.55-7.88-4.55Z"/><path class="cls-6" d="m39.41,25.47h1.5v3.84c0,1.06.3,1.45,1,1.45s.94-.26,1.42-.89v-4.4h1.51v6.43h-1.23l-.12-.9c-.48.67-1.25,1.07-2.07,1.09-1.37,0-2-.92-2-2.55v-4.07Zm7.17,0h1.24l.1.87h.08c.53-.61,1.29-.97,2.1-1,1.38,0,2,.93,2,2.55v4h-1.55v-3.83c0-1.06-.3-1.45-1-1.45-.58.05-1.12.34-1.47.8v4.49h-1.5v-6.43Zm7.42,0h1.5v6.43h-1.5v-6.43Zm2.62,0h1.53l1,3.34c.17.63.37,1.28.54,1.94.19-.66.37-1.31.55-1.94l1-3.34h1.46l-2.1,6.43h-1.74l-2.24-6.43Zm9.58-.15c1.74,0,2.66,1.25,2.66,3,0,.24-.02.48-.07.71h-4.08c.01,1.02.84,1.83,1.86,1.82.01,0,.03,0,.04,0,.53,0,1.05-.17,1.49-.47l.51.94c-.65.44-1.41.68-2.2.69-1.71.04-3.14-1.31-3.18-3.02,0-.11,0-.23,0-.34-.11-1.72,1.19-3.21,2.92-3.33.01,0,.03,0,.04,0Zm1.35,2.8c0-1-.43-1.64-1.31-1.64s-1.41.56-1.54,1.64h2.85Zm2.88-2.65h1.24l.1,1.14h.06c.32-.73,1.01-1.23,1.81-1.29.25-.01.51.03.74.13l-.26,1.31c-.22-.07-.44-.11-.67-.11-.51,0-1.13.35-1.52,1.32v3.93h-1.5v-6.43Zm4.88,4.73c.49.44,1.11.69,1.77.72.7,0,1-.33,1-.78s-.7-.77-1.38-1c-.85-.31-1.8-.8-1.8-1.87s.9-1.92,2.34-1.92c.78,0,1.53.28,2.13.77l-.69.91c-.4-.33-.9-.52-1.42-.55-.64,0-.94.31-.94.71s.64.71,1.34,1c.87.32,1.84.74,1.84,1.95s-.88,2-2.5,2c-.89-.03-1.74-.34-2.43-.89l.74-1.05Zm5.69-4.73h1.51v6.43h-1.51v-6.43Zm3.84,1.19h-.91v-1.12l1-.07.18-1.75h1.26v1.75h1.63v1.19h-1.64v3.07c0,.75.29,1.12.9,1.12.23,0,.46-.05.67-.14l.26,1.11c-.42.15-.86.23-1.31.23-1.49,0-2-.94-2-2.32l-.04-3.07Zm7.08-1.34c1.74,0,2.66,1.25,2.66,3,0,.24-.02.48-.07.71h-4.08c.01,1.02.84,1.83,1.86,1.82.01,0,.03,0,.04,0,.53,0,1.05-.17,1.49-.47l.51.94c-.65.44-1.41.68-2.2.69-1.71.02-3.12-1.35-3.14-3.06,0-.09,0-.17,0-.26-.14-1.72,1.15-3.23,2.87-3.37.02,0,.03,0,.05,0Zm1.35,2.8c0-1-.43-1.64-1.31-1.64s-1.41.56-1.54,1.64h2.85ZM39.41,4.6h3.59v12.77h6.2v3h-9.79V4.6Zm12.11,0h3.56v15.77h-3.56V4.6Zm6.35,0h9.87v3h-6.31v3.17h5.37v2.97h-5.37v3.63h6.55v3h-10.11V4.6Zm1.19-4.6h3.77l1.96,2.9h-2.83l-2.9-2.9Zm10.13,12.58c-.02-1.19.19-2.38.62-3.49.38-.97.94-1.85,1.67-2.6.7-.71,1.53-1.26,2.46-1.62.96-.37,1.97-.56,3-.56,1-.02,1.99.19,2.89.63.74.36,1.42.85,2,1.43l-2,2.2c-.36-.35-.77-.65-1.22-.87-.51-.22-1.06-.33-1.61-.32-.58,0-1.15.11-1.68.35-.5.24-.95.58-1.31,1-.4.46-.69,1.01-.86,1.59-.22.69-.32,1.41-.31,2.13-.08,1.35.31,2.69,1.1,3.79.84.94,2.07,1.43,3.33,1.34.32,0,.63-.04.94-.12.29-.05.56-.18.79-.36v-2.7h-2.65v-2.91h5.76v7.26c-.65.58-1.41,1.04-2.23,1.35-.96.38-1.97.57-3,.56-1.02.01-2.04-.16-3-.52-.91-.34-1.74-.86-2.43-1.54-.72-.71-1.28-1.57-1.64-2.52-.42-1.12-.63-2.31-.62-3.5Zm15.24-7.98h9.87v3h-6.3v3.17h5.36v3h-5.36v3.63h6.55v3h-10.12V4.6Zm-30.61,19.06c-.04-.51.33-.96.85-1.01.51-.04.96.33,1.01.85s-.33.96-.85,1.01c-.03,0-.05,0-.08,0-.48.03-.89-.33-.93-.81,0-.01,0-.03,0-.04Zm27.03,0c-.04-.51.33-.96.85-1.01.51-.04.96.33,1.01.85.04.51-.33.96-.85,1.01-.03,0-.05,0-.08,0-.47.04-.89-.31-.93-.79,0-.02,0-.04,0-.06Zm11.23,1.05h-1.11l1.16-1.91h1.5l-1.55,1.91Z"/></svg>